<?xml version="1.0" encoding="utf-8"?>
<!-- Generator: Adobe Illustrator 26.0.2, SVG Export Plug-In . SVG Version: 6.00 Build 0)  -->
<svg version="1.1" id="Layer_1" xmlns="http://www.w3.org/2000/svg" xmlns:xlink="http://www.w3.org/1999/xlink" x="0px" y="0px"
	 viewBox="0 0 35 35" xml:space="preserve">
<style type="text/css">
	.st0{fill:#005776;}
	.st1{fill:#FFFFFF;}
</style>
<g>
	<path class="st0" d="M2.58,11.56v10.05c0,2.12,1.13,4.08,2.97,5.14l8.7,5.02c1.84,1.06,4.1,1.06,5.94,0l8.7-5.02
		c1.84-1.06,2.97-3.02,2.97-5.14V11.56c0-2.12-1.13-4.08-2.97-5.14l-8.7-5.02c-1.84-1.06-4.1-1.06-5.94,0l-8.7,5.02
		C3.72,7.48,2.58,9.44,2.58,11.56z"/>
	<path class="st1" d="M19.38,6.71L19.38,6.71c-0.03-0.01-0.07-0.02-0.11-0.02l0,0C18.67,6.59,18.1,7,18.01,7.6
		c-0.09,0.56,0.25,1.09,0.79,1.24l0,0l0.14,0.03l0,0c1.76,0.39,3.34,1.37,4.47,2.79c-0.37-0.08-0.75-0.13-1.13-0.13
		c-0.13,0-0.25,0-0.38,0.01c-0.03,0-0.06,0-0.09,0.01h0c-0.72,0.07-1.42,0.29-2.04,0.65c-0.02,0.01-0.04,0.02-0.06,0.03
		c-0.04,0.02-0.08,0.05-0.13,0.08l-0.04,0.03l-0.04,0.03l-0.04,0.03c-0.01,0.01-0.02,0.02-0.03,0.02l-0.04,0.03c0,0,0,0-0.01,0
		c-0.01,0.01-0.03,0.02-0.04,0.03c-0.03,0.02-0.07,0.05-0.1,0.08l-0.06,0.05c-0.01,0.01-0.03,0.02-0.04,0.03s-0.03,0.02-0.04,0.03
		l-0.01,0.01c-0.01,0.01-0.03,0.02-0.04,0.04c-0.03,0.03-0.06,0.05-0.1,0.08l0,0l-0.02,0.01l-0.04,0.03c0,0,0,0,0,0l-0.03,0.03
		c-0.09,0.08-0.17,0.16-0.25,0.25l0,0c-0.27,0.4-0.26,0.93,0.03,1.32l0,0c0.08,0.11,0.18,0.2,0.29,0.27c0.38,0.25,0.88,0.25,1.26,0
		c0.09-0.1,0.19-0.2,0.3-0.29c0.67-0.56,1.57-0.79,2.43-0.6c1.05,0.22,1.88,1.03,2.13,2.08c0.44,1.86-0.96,3.51-2.74,3.51
		c-0.66,0-1.31-0.23-1.81-0.66l0,0l-4.73-5.73l-0.01,0L15.75,13l0,0c-0.05-0.05-0.1-0.1-0.16-0.15l-0.05-0.05
		c-0.25-0.23-0.53-0.43-0.82-0.6c-0.58-0.34-1.22-0.55-1.88-0.64c-0.13-0.02-0.27-0.03-0.4-0.04c-0.08,0-0.17-0.01-0.25-0.01
		c-0.38,0-0.75,0.04-1.12,0.12c1.13-1.41,2.7-2.39,4.47-2.78c0.05-0.01,0.1-0.02,0.15-0.03h0c0.59-0.17,0.93-0.78,0.76-1.37
		c-0.14-0.48-0.57-0.8-1.06-0.8c-0.06,0-0.12,0-0.18,0.02c-0.03,0.01-0.06,0.01-0.09,0.02l0,0c-4.56,0.98-7.97,5.03-7.97,9.88
		c0,4.78,3.32,8.79,7.78,9.84c0.13,0.03,0.27,0.06,0.4,0.09h0.03c0.62,0,1.12-0.5,1.12-1.12c0-0.5-0.33-0.93-0.81-1.07
		c-0.05-0.01-0.1-0.02-0.15-0.03c-1.76-0.4-3.33-1.38-4.46-2.79c0.37,0.08,0.75,0.13,1.13,0.13c0.06,0,0.12,0,0.17,0
		c0.19-0.01,0.37-0.02,0.56-0.05c0.64-0.09,1.25-0.31,1.81-0.63c0.29-0.17,0.55-0.36,0.8-0.58l0,0l0.01-0.01l0,0
		c0.09-0.08,0.17-0.16,0.25-0.24l0,0l0.03-0.03c0.31-0.42,0.3-0.99-0.03-1.4c-0.06-0.08-0.14-0.15-0.22-0.21
		c-0.4-0.28-0.93-0.29-1.33-0.01c-0.08,0.09-0.17,0.17-0.26,0.25l0,0c-1.19,1.01-2.98,0.87-3.99-0.32s-0.87-2.98,0.32-3.99
		c1.06-0.9,2.62-0.9,3.68,0c0.06,0.05,0.12,0.11,0.18,0.17c0.02,0.02,0.05,0.05,0.07,0.07c-0.01-0.01-0.02-0.01-0.02-0.02l4.3,5.21
		c0.02,0.04,0.04,0.09,0.06,0.13l0,0c0.01,0.01,0.02,0.02,0.03,0.03l0.03,0.03c0.01,0.01,0.02,0.02,0.03,0.03
		c0.01,0.01,0.02,0.02,0.03,0.03l0.05,0.05c0.01,0.01,0.02,0.02,0.04,0.03l0.03,0.03l0.03,0.03l0.03,0.03l0.03,0.03
		c0.02,0.02,0.04,0.03,0.06,0.05c0.02,0.02,0.03,0.03,0.05,0.04l0.05,0.04l0.01,0.01l0,0l0.07,0.06l0.06,0.04
		c0.02,0.01,0.04,0.03,0.06,0.04l0.06,0.04c0.02,0.02,0.05,0.03,0.07,0.05l0.05,0.03l0.06,0.04l0.06,0.04
		c0.06,0.04,0.11,0.07,0.17,0.11c0.01,0.01,0.03,0.02,0.05,0.03l0.05,0.03c0.74,0.42,1.57,0.65,2.42,0.67c0.03,0,0.06,0,0.1,0
		c0.38,0,0.77-0.04,1.14-0.13c-1.11,1.4-2.67,2.39-4.42,2.79h-0.01c-0.1,0.02-0.2,0.04-0.3,0.06c-0.58,0.21-0.89,0.85-0.68,1.43
		c0.16,0.44,0.58,0.74,1.05,0.74c0.03,0,0.06,0,0.09,0l0,0c0.09-0.02,0.19-0.04,0.28-0.06l0,0c4.51-1.01,7.89-5.04,7.89-9.86
		C27.34,11.74,23.93,7.69,19.38,6.71z M20.37,18.63c-0.02-0.02-0.04-0.04-0.06-0.06C20.33,18.59,20.35,18.61,20.37,18.63z"/>
</g>
</svg>
