<?xml version="1.0" encoding="utf-8"?>
<svg id="Artwork" viewBox="127.716 105.355 694.951 126.413" xmlns="http://www.w3.org/2000/svg">
  <defs>
    <style>.cls-1{fill:#fff;stroke-width:0px;}</style>
  </defs>
  <path class="cls-1" d="M165.69,109.96h-32.27c-1.96,0-2.95,2.37-1.56,3.76l29.06,29.06c2.16,2.16,2.16,5.67,0,7.83l-29.06,29.06c-1.39,1.39-.41,3.76,1.56,3.76h32.27c1.18,0,2.3-.47,3.13-1.3l31.53-31.53c2.16-2.16,2.16-5.67,0-7.83l-31.53-31.53c-.83-.83-1.96-1.3-3.13-1.3Z"/>
  <path class="cls-1" d="M261.77,216.42l-31.46-31.46c-.84-.84-.86-2.21-.04-3.07l29.65-31.27c2.06-2.18,2.02-5.6-.1-7.73l-31.63-31.63c-.83-.83-1.96-1.3-3.13-1.3h-32.27c-1.96,0-2.95,2.37-1.56,3.76l29.06,29.06c2.16,2.16,2.16,5.67,0,7.83l-30.49,30.49c-1.29,1.29-1.29,3.38,0,4.68l33.11,33.1c.83.83,1.96,1.3,3.13,1.3h34.18c1.96,0,2.95-2.37,1.56-3.76Z"/>
  <path class="cls-1" d="M528.63,146.02c-4.07-2.56-9.33-3.85-15.76-3.85-4.93,0-9.1.77-12.52,2.31-3.42,1.54-6.21,3.54-8.37,6-2.16,2.46-3.85,4.98-5.05,7.54h-.52c-.17-.47-.35-.93-.54-1.38-1.91-4.51-4.85-8.05-8.83-10.62-3.97-2.56-9.13-3.85-15.46-3.85-4.73,0-8.8.77-12.22,2.31-3.42,1.54-6.21,3.49-8.37,5.85-2.16,2.36-3.8,4.92-4.9,7.69h-.75v-12.93c0-.76-.62-1.38-1.38-1.38h-12.17c-.76,0-1.38.62-1.38,1.38v73.71c0,.76.62,1.38,1.38,1.38h13.52c.76,0,1.38-.62,1.38-1.38v-43.24c0-6.98,1.48-11.87,4.45-14.7,2.97-2.82,7.52-4.23,13.65-4.23,6.74,0,11.39,1.49,13.96,4.46,2.56,2.98,3.85,7.9,3.85,14.77v42.93c0,.76.62,1.38,1.38,1.38h13.37c.76,0,1.38-.62,1.38-1.38v-43.09c0-6.98,1.48-11.9,4.45-14.77,2.97-2.87,7.52-4.31,13.65-4.31,6.84,0,11.49,1.49,13.95,4.46,2.46,2.98,3.7,7.9,3.7,14.77v42.93c0,.76.62,1.38,1.38,1.38h13.52c.76,0,1.38-.62,1.38-1.38v-46.63c0-5.85-1.01-11.03-3.02-15.54-2.01-4.51-5.05-8.05-9.13-10.62Z"/>
  <path class="cls-1" d="M602.95,181.25c-3.27-1.85-7.32-3.23-12.14-4.15l-12.67-2.46c-5.33-1.13-8.88-2.28-10.64-3.46-1.76-1.18-2.64-3.21-2.64-6.08,0-3.08.98-5.39,2.94-6.92,1.96-1.54,5.91-2.31,11.84-2.31,4.53,0,7.89.51,10.11,1.54,2.21,1.03,3.72,2.44,4.53,4.23.8,1.8,1.21,3.92,1.21,6.39v.46c0,.76.62,1.38,1.38,1.38h12.92c.76,0,1.38-.62,1.38-1.38,0-5.85-1.38-10.72-4.15-14.62-2.77-3.9-6.44-6.82-11.01-8.77-4.58-1.95-9.88-2.92-15.92-2.92-9.76,0-17.33,2.13-22.71,6.39-5.38,4.26-8.07,9.82-8.07,16.7,0,4.52.91,8.31,2.72,11.39,1.81,3.08,4.32,5.46,7.54,7.16,3.22,1.69,7.09,2.95,11.62,3.77l11.77,2.31c5.53,1.03,9.33,2.13,11.39,3.31,2.06,1.18,3.09,3.36,3.09,6.54,0,1.95-.35,3.52-1.06,4.69-.7,1.18-2.09,2.08-4.15,2.69-2.06.62-5.11.92-9.13.92-4.73,0-8.37-.33-10.94-1-2.56-.67-4.35-1.87-5.36-3.62-1.01-1.74-1.51-3.95-1.51-6.62v-1.39c0-.76-.62-1.38-1.39-1.38h-13.05c-.78,0-1.41.64-1.39,1.42.06,2.12.27,4.31.61,6.08,1.12,5.76,3.72,10.27,7.82,13.51,5.63,4.46,13.93,6.69,24.89,6.69,9.45,0,16.84-1.97,22.18-5.92,5.33-3.95,8-9.46,8-16.54,0-4.21-.86-7.79-2.56-10.77-1.71-2.97-4.2-5.39-7.47-7.23Z"/>
  <path class="cls-1" d="M676.04,147.17c-5.48-3.33-12.05-5-19.69-5s-14.26,1.67-19.84,5c-5.58,3.33-9.91,7.98-12.97,13.93-3.07,5.95-4.6,12.88-4.6,20.77s1.53,14.85,4.6,20.85c3.07,6,7.39,10.67,12.97,14,5.58,3.33,12.19,5,19.84,5s14.2-1.67,19.69-5c5.48-3.33,9.73-8,12.75-14,3.02-6,4.53-12.95,4.53-20.85s-1.51-14.82-4.53-20.77c-3.02-5.95-7.27-10.59-12.75-13.93ZM672.87,200.87c-3.07,4.05-8.58,6.08-16.52,6.08s-13.48-2.02-16.59-6.08c-3.12-4.05-4.68-10.39-4.68-19s1.56-14.95,4.68-19c3.12-4.05,8.65-6.08,16.59-6.08s13.45,2.03,16.52,6.08c3.07,4.05,4.6,10.39,4.6,19s-1.53,14.95-4.6,19Z"/>
  <path class="cls-1" d="M785.92,146.25h-21.4v-12.16c0-.76-.62-1.38-1.38-1.38h-13.37c-.76,0-1.38.62-1.38,1.38v12.16h-30.5v-4.15c0-3.28.85-5.67,2.56-7.16,1.71-1.49,4.38-2.23,8-2.23h11.32c.76,0,1.38-.62,1.38-1.38v-10.31c0-.76-.62-1.38-1.38-1.38h-8.31c-6.34,0-11.72,1.03-16.14,3.08-4.43,2.05-7.72,5.1-9.88,9.16-2.16,4.05-3.24,9.06-3.24,15v71.93c0,.76.62,1.38,1.38,1.38h13.37c.76,0,1.38-.62,1.38-1.38v-58.7h30.05v36.54c0,8.62,2.19,14.7,6.56,18.23s10.69,5.31,18.93,5.31c2.61,0,5.13-.15,7.54-.46,1.85-.24,3.43-.47,4.75-.71.66-.12,1.13-.69,1.13-1.36v-11.16c0-.76-.62-1.38-1.39-1.38h-7.67c-5.13,0-8.7-.54-10.71-1.62-2.01-1.08-3.02-3.62-3.02-7.62v-35.77h21.4c.76,0,1.39-.62,1.39-1.38v-11.08c0-.76-.62-1.38-1.39-1.38Z"/>
  <path class="cls-1" d="M395.39,146.17c-4.68-2.67-10.49-4-17.42-4s-12.45,1.26-17.42,3.77c-4.98,2.51-8.85,6-11.62,10.46-2.77,4.46-4.15,9.52-4.15,15.16v.15c0,.76.62,1.38,1.38,1.38h12.92c.76,0,1.38-.62,1.38-1.38v-.92c0-5.13,1.28-8.74,3.85-10.85,2.56-2.1,6.81-3.15,12.75-3.15s10.23,1.03,12.9,3.08c1.66,1.28,2.8,3.27,3.43,5.98.47,3.12.4,6.83-2.3,9.2-4.89,4.28-15.24,3.19-23.38,4.52-5.23.82-9.73,2.13-13.5,3.92-3.77,1.8-6.61,4.15-8.52,7.08-1.91,2.92-2.87,6.49-2.87,10.69,0,6.67,2.26,11.75,6.79,15.23,4.53,3.49,10.06,5.23,16.9,5.23,4.62,0,8.7-.64,12.22-1.92,3.52-1.28,6.54-2.95,9.05-5,2.51-2.05,4.47-4.26,5.88-6.62h.75v10.62c0,.76.62,1.38,1.38,1.38h12.32c.76,0,1.38-.62,1.38-1.38v-45.09c0-6.36-1.18-11.87-3.55-16.54-2.36-4.67-5.88-8.33-10.56-11ZM393.8,188.79c0,5.13-1.08,9.13-3.24,12-4.06,5.39-9.69,8.43-17.77,8.87-5.19.28-9.81-.55-12.33-2.42-2.19-1.63-3.4-3.92-3.4-7.19s1.02-5.31,2.82-6.77c2.12-1.72,5.2-2.86,9.96-3.65,7.56-1.17,12.78-.39,17.63-2.89,2.89-1.48,4.68-3.28,5.59-6.05h.75s0,8.1,0,8.1Z"/>
  <path class="cls-1" d="M344.38,154.79v-11.23c0-.76-.62-1.38-1.38-1.38h-10.62c-5.43,0-9.88,1.33-13.35,4-3.47,2.67-5.96,5.75-7.47,9.23h-.75v-10.77c0-.76-.62-1.38-1.38-1.38h-12.17c-.76,0-1.38.62-1.38,1.38v74.17c0,.76.62,1.38,1.38,1.38h13.52c.76,0,1.38-.62,1.38-1.38v-48.47c0-5.13,1.03-8.77,3.09-10.93,2.06-2.15,5.51-3.23,10.33-3.23h17.41c.76,0,1.38-.62,1.38-1.38Z"/>
  <path class="cls-1" d="M815.35,148.41c-.84-1.45-1.99-2.61-3.43-3.46-1.45-.85-3.02-1.28-4.73-1.28s-3.29.43-4.74,1.28c-1.45.85-2.6,2.01-3.45,3.46-.84,1.45-1.27,3.03-1.27,4.74s.42,3.32,1.27,4.78c.84,1.46,1.99,2.62,3.45,3.47,1.45.85,3.03,1.28,4.74,1.28s3.28-.43,4.73-1.28c1.44-.85,2.59-2.01,3.43-3.47.84-1.46,1.27-3.06,1.27-4.78s-.42-3.29-1.27-4.74ZM813.76,157.05c-.69,1.19-1.61,2.14-2.77,2.83-1.16.7-2.42,1.04-3.8,1.04s-2.65-.35-3.81-1.04c-1.17-.7-2.09-1.64-2.78-2.83-.69-1.19-1.03-2.49-1.03-3.9s.34-2.68,1.03-3.86c.69-1.18,1.61-2.12,2.78-2.82,1.17-.7,2.44-1.04,3.81-1.04s2.64.35,3.8,1.04c1.16.7,2.08,1.64,2.77,2.82.69,1.18,1.03,2.47,1.03,3.86s-.34,2.71-1.03,3.9Z"/>
  <path class="cls-1" d="M810.14,154.63c-.26-.36-.61-.62-1.04-.8v-.03c.71-.16,1.28-.47,1.71-.94.43-.47.64-1.06.64-1.78,0-.89-.33-1.58-.98-2.09-.65-.5-1.52-.76-2.6-.76h-4.28v9.82h1.85v-3.5h1.36c.47,0,.83.04,1.08.12.25.08.46.23.61.46.16.23.3.57.44,1.04l.57,1.88h1.96l-.6-1.88c-.23-.68-.47-1.2-.73-1.55ZM807.53,152.92h-2.09v-3.06h2.43c.52,0,.93.14,1.23.4.3.27.44.63.44,1.08,0,.49-.18.87-.54,1.15-.36.28-.85.42-1.48.42Z"/>
</svg>